<svg id="Layer_1" data-name="Layer 1" xmlns="http://www.w3.org/2000/svg" viewBox="0 0 30 25"><defs><style>.cls-1,.cls-2{fill:none;}.cls-2{stroke:#5b5b5b;stroke-linecap:round;stroke-linejoin:round;stroke-width:1.2px;}</style></defs><title>kart</title><rect class="cls-1" width="30" height="25"/><g id="Group_42" data-name="Group 42"><g id="Icon_feather-shopping-cart" data-name="Icon feather-shopping-cart"><path id="Path_22" data-name="Path 22" class="cls-2" d="M12.91,21.6a.79.79,0,0,1-.79.79.79.79,0,0,1,0-1.58h0A.79.79,0,0,1,12.91,21.6Z"/><path id="Path_23" data-name="Path 23" class="cls-2" d="M23.84,21.6a.8.8,0,1,1-.8-.79h0A.79.79,0,0,1,23.84,21.6Z"/><path id="Path_24" data-name="Path 24" class="cls-2" d="M4.59.62H8.38l2.53,16a2.07,2.07,0,0,0,1.9,1.92H22a2.05,2.05,0,0,0,1.89-1.92l1.52-10H9.32"/></g></g></svg>