<svg xmlns="http://www.w3.org/2000/svg" xmlns:xlink="http://www.w3.org/1999/xlink" viewBox="0 0 102.45 102.45"><defs><style>.cls-1{fill:#f4e5d7;}.cls-2{fill:#47211a;}.cls-3{opacity:0.23;}.cls-4{fill:#d78c74;}.cls-5{fill:#f4b869;}.cls-6{fill:#e5a185;}.cls-7{opacity:0.58;}.cls-8{fill:#e5a084;}.cls-9{fill:#e59f83;}.cls-10{fill:#e49e83;}.cls-11{fill:#e49d82;}.cls-12{fill:#e49c81;}.cls-13{fill:#e49b80;}.cls-14{fill:#e49a80;}.cls-15{fill:#e3997f;}.cls-16{fill:#e3987e;}.cls-17{fill:#e3977d;}.cls-18{fill:#e3967c;}.cls-19{fill:#e2957c;}.cls-20{fill:#e2947b;}.cls-21{fill:#e2937a;}.cls-22{fill:#e29279;}.cls-23{fill:#e29179;}.cls-24{fill:#e19078;}.cls-25{fill:#e18f77;}.cls-26{fill:#e18e76;}.cls-27{fill:#e18d75;}.cls-28{fill:#e18c75;}.cls-29{fill:#e08b74;}.cls-30{fill:#e08a73;}.cls-31{fill:#e08972;}.cls-32{fill:#e08872;}.cls-33{fill:#df8771;}.cls-34{fill:#df8670;}.cls-35{fill:#df856f;}.cls-36{fill:#df846f;}.cls-37{fill:#df836e;}.cls-38{fill:#de826d;}.cls-39{fill:#de816c;}.cls-40{fill:#de806b;}.cls-41{fill:#de7f6b;}.cls-42{fill:#de7e6a;}.cls-43{fill:#dd7d69;}.cls-44{fill:#dd7c68;}.cls-45{fill:#dd7b68;}.cls-46{fill:#dd7a67;}.cls-47{fill:#dd7a66;}.cls-48{fill:#dc7965;}.cls-49{fill:#dc7864;}.cls-50{fill:#dc7764;}.cls-51{fill:#dc7663;}.cls-52{fill:#db7562;}.cls-53{fill:#db7461;}.cls-54{fill:#db7361;}.cls-55{fill:#db7260;}.cls-56{fill:#db715f;}.cls-57{fill:#da705e;}.cls-58{fill:#da6f5d;}.cls-59{fill:#da6e5d;}.cls-60{fill:#da6d5c;}.cls-61{fill:#da6c5b;}.cls-62{fill:#d96b5a;}.cls-63{fill:#d96a5a;}.cls-64{fill:#d96959;}.cls-65{fill:#d96858;}.cls-66{fill:#d86757;}.cls-67{fill:#d86657;}.cls-68{fill:#d86556;}.cls-69{fill:#d86455;}.cls-70{fill:#d86354;}.cls-71{fill:#d76253;}.cls-72{fill:#d76153;}.cls-73{fill:#d76052;}.cls-74{fill:#d75f51;}.cls-75{fill:#d75e50;}.cls-76{fill:#d65d50;}.cls-77{fill:#d65c4f;}.cls-78{fill:#d65b4e;}.cls-79{fill:#d65a4d;}.cls-80{fill:#d5594c;}.cls-81{fill:#d5584c;}.cls-82{fill:#d5574b;}.cls-83{fill:#d5564a;}.cls-84{fill:#d55549;}.cls-85{fill:#d45449;}.cls-86{fill:#d45348;}.cls-87{fill:#d45247;}.cls-88{opacity:0.65;}.cls-89{fill:#6c332e;}.cls-90,.cls-93,.cls-97{fill:#fff;}.cls-91{fill:#c3bba5;opacity:0.35;}.cls-92{fill:url(#Áåçûìÿííûé_ãðàäèåíò_5);}.cls-93{opacity:0.87;}.cls-94{fill:url(#Áåçûìÿííûé_ãðàäèåíò_5-2);}.cls-95{fill:#281b17;}.cls-96{opacity:0.1;}.cls-97{opacity:0.14;}.cls-98{fill:#54281f;}.cls-100,.cls-99{opacity:0.08;}.cls-100{fill:#ffd092;}.cls-101{opacity:0.09;}.cls-102{fill:#ed7070;}.cls-103{fill:#ff7b78;}</style><linearGradient id="Áåçûìÿííûé_ãðàäèåíò_5" x1="59.56" y1="45.04" x2="62" y2="38.53" gradientUnits="userSpaceOnUse"><stop offset="0" stop-color="#2cb76b"/><stop offset="1"/></linearGradient><linearGradient id="Áåçûìÿííûé_ãðàäèåíò_5-2" x1="40.96" y1="45.06" x2="43.14" y2="38.44" xlink:href="#Áåçûìÿííûé_ãðàäèåíò_5"/></defs><g id="Layer_2" data-name="Layer 2"><g id="Ñëîé_1" data-name="Ñëîé 1"><circle class="cls-1" cx="51.22" cy="51.22" r="51.22"/><path class="cls-2" d="M47.12,7.08S37.4,3.8,23.91,33.57C7.47,69.88,38.31,93.4,32.23,98.79a50.74,50.74,0,0,0,14.44,3.45C53,100.4,60.59,95.93,68.93,86.49,88.55,64.3,91,48.22,75.7,25.7,69.12,16,51.05,1,47.12,7.08Z"/><path class="cls-3" d="M72.74,43l-.11-.4c-.29-1.06-.59-2.12-.93-3.16-.65-2-1.4-4-2.23-6a56.55,56.55,0,0,0-5.78-10.91c-.6-.87-1.23-1.73-1.9-2.55-.33-.41-.68-.79-1-1.19l-.19-.21A34.45,34.45,0,0,0,56.31,15L56,14.82l-.34-.18c-.5-.29-1-.56-1.51-.82-1-.5-1.93-1-2.9-1.47a51,51,0,0,1-5.68-3.2,4.92,4.92,0,0,1-.88,1.49A110.09,110.09,0,0,0,30.88,30.07a44.25,44.25,0,0,0-4,9.23,36.82,36.82,0,0,0-1.06,10,63.8,63.8,0,0,0,4.58,21.16c1.34,3.49,2.89,6.89,4.55,10.24.93,1.86,1.92,3.68,2.87,5.53.4.77.78,1.55,1.18,2.31l.56,1,.28.48c2.3,4,4.76,8,6.87,12.16a35.3,35.3,0,0,0,8.58-3.88c2.22-2.46,4.35-5,6.36-7.6a73.85,73.85,0,0,0,6.41-9.65,62.9,62.9,0,0,0,3-6.19c.36-.88.71-1.76,1-2.66.19-.53.37-1.07.55-1.61,0,0,0-.17.08-.29C75.12,61.81,75,54,73.21,45.13,73.07,44.4,72.92,43.67,72.74,43Z"/><path class="cls-4" d="M55.91,61.47c-.37-2.54-3.89-3.93-6.53-3.74s-4,1.6-3.58,4.14c0,0,.16,7.8-1.68,7.8-2.57,0,5.54,8.24,8.18,8.06s7.38-7.75,4.81-7.87C55.24,69.77,55.91,61.47,55.91,61.47Z"/><path class="cls-4" d="M72.12,78.9c-.31-1.21-.45-2.55-.71-3.12l-8.83,5.39a4.86,4.86,0,0,1-.3-.86c0,.13.09.4.16.79A163.46,163.46,0,0,0,67.2,99.9a51.45,51.45,0,0,0,9.51-4.25C75.47,91.69,73.85,85.75,72.12,78.9Z"/><path class="cls-4" d="M63.78,70.73s0,1.51,0,7.45S74.52,93.65,74.52,93.65,72,74.22,70,72.12,63.78,70.73,63.78,70.73Z"/><path class="cls-4" d="M62.74,71.05a4,4,0,0,1-.06-.5,89.68,89.68,0,0,0-20.17-.78A11.09,11.09,0,0,1,39.6,70c-7.09-1.37-9.21,2.59-9.21,2.59A215.12,215.12,0,0,1,38,94.32H72.12a35.46,35.46,0,0,1-5.22-7.56C64.42,81.9,63.77,76.35,62.74,71.05Z"/><path class="cls-5" d="M68.92,83a65,65,0,0,1-5.14-12.22c-1.42-.29-1.41-.23-2.81-.43a13,13,0,0,1,.34,4.88c-.75,5.87-7.39,9.15-12.25,5.39-.93-.72-4.32-4.43-6.55-10.8-1,.08-2,.16-2.91.25a25.26,25.26,0,0,1,1.68,8.57A23.31,23.31,0,0,1,36.7,93.14c.82,2.83,1.91,5.45,2.76,7.94a51.84,51.84,0,0,0,11.76,1.37,51.06,51.06,0,0,0,25-6.5,8.53,8.53,0,0,0-.4-3.85C75,89.92,71.41,87.23,68.92,83Z"/><path class="cls-4" d="M73.1,39.78a5,5,0,0,0-2.48-.61L69.56,49.25C74.75,48,74.2,40.45,73.1,39.78Z"/><path class="cls-6" d="M57.51,16.9a22.41,22.41,0,0,0-7.07-1.57C44.22,15,38,17.13,34.13,22.2c-3.24,4.26-3.74,9.87-3.17,15a47.77,47.77,0,0,0,2.88,11.86,3,3,0,0,1,.6.48c2.94,3,4.35,7,7.51,9.63a31.51,31.51,0,0,0,4.4,3.53,42.27,42.27,0,0,0,4.4,1.8,23.71,23.71,0,0,0,11.11-4.79A12.7,12.7,0,0,0,66,55.34a35.11,35.11,0,0,1,2.44-4c.26-.37.55-.73.84-1.08l.11-.15A4.14,4.14,0,0,1,70.17,48c2.39-8.46,1.46-18.19-4-24.78A22.38,22.38,0,0,0,57.51,16.9Z"/><g class="cls-7"><path class="cls-6" d="M61.68,37.86a7.74,7.74,0,1,0,7.86,7.63A7.74,7.74,0,0,0,61.68,37.86Z"/><path class="cls-8" d="M61.68,37.91a7.69,7.69,0,1,0,7.81,7.58A7.7,7.7,0,0,0,61.68,37.91Z"/><path class="cls-9" d="M61.68,38a7.65,7.65,0,1,0,7.76,7.53A7.64,7.64,0,0,0,61.68,38Z"/><path class="cls-10" d="M61.68,38a7.6,7.6,0,1,0,7.71,7.49A7.61,7.61,0,0,0,61.68,38Z"/><path class="cls-11" d="M61.68,38.05a7.55,7.55,0,1,0,7.66,7.44A7.54,7.54,0,0,0,61.68,38.05Z"/><path class="cls-12" d="M61.68,38.1a7.5,7.5,0,1,0,7.62,7.39A7.49,7.49,0,0,0,61.68,38.1Z"/><path class="cls-13" d="M61.68,38.15a7.45,7.45,0,1,0,7.57,7.34A7.46,7.46,0,0,0,61.68,38.15Z"/><path class="cls-14" d="M61.69,38.2a7.4,7.4,0,1,0,7.51,7.29A7.41,7.41,0,0,0,61.69,38.2Z"/><path class="cls-15" d="M61.69,38.25a7.36,7.36,0,1,0,7.46,7.24A7.35,7.35,0,0,0,61.69,38.25Z"/><path class="cls-16" d="M61.69,38.29a7.31,7.31,0,1,0,7.41,7.2A7.31,7.31,0,0,0,61.69,38.29Z"/><path class="cls-17" d="M61.69,38.34a7.26,7.26,0,1,0,7.36,7.15A7.26,7.26,0,0,0,61.69,38.34Z"/><path class="cls-18" d="M61.69,38.39A7.21,7.21,0,1,0,69,45.49,7.21,7.21,0,0,0,61.69,38.39Z"/><path class="cls-19" d="M61.69,38.44A7.16,7.16,0,1,0,69,45.49,7.17,7.17,0,0,0,61.69,38.44Z"/><path class="cls-20" d="M61.69,38.49a7.11,7.11,0,1,0,7.22,7A7.12,7.12,0,0,0,61.69,38.49Z"/><path class="cls-21" d="M61.69,38.54a7.07,7.07,0,1,0,7.17,7A7.06,7.06,0,0,0,61.69,38.54Z"/><path class="cls-22" d="M61.69,38.59a7,7,0,1,0,7.12,6.91A7,7,0,0,0,61.69,38.59Z"/><path class="cls-23" d="M61.69,38.63a7,7,0,1,0,7.07,6.87A7,7,0,0,0,61.69,38.63Z"/><path class="cls-24" d="M61.69,38.68a6.92,6.92,0,1,0,7,6.82A6.91,6.91,0,0,0,61.69,38.68Z"/><path class="cls-25" d="M61.69,38.73a6.87,6.87,0,1,0,7,6.77A6.88,6.88,0,0,0,61.69,38.73Z"/><path class="cls-26" d="M61.69,38.78a6.82,6.82,0,1,0,6.93,6.72A6.82,6.82,0,0,0,61.69,38.78Z"/><path class="cls-27" d="M61.69,38.83a6.78,6.78,0,1,0,6.88,6.67A6.77,6.77,0,0,0,61.69,38.83Z"/><path class="cls-28" d="M61.7,38.88a6.73,6.73,0,1,0,6.82,6.62A6.72,6.72,0,0,0,61.7,38.88Z"/><path class="cls-29" d="M61.7,38.92a6.68,6.68,0,1,0,6.77,6.58A6.68,6.68,0,0,0,61.7,38.92Z"/><path class="cls-30" d="M61.7,39a6.63,6.63,0,1,0,6.72,6.53A6.63,6.63,0,0,0,61.7,39Z"/><path class="cls-31" d="M61.7,39a6.58,6.58,0,1,0,6.68,6.48A6.58,6.58,0,0,0,61.7,39Z"/><path class="cls-32" d="M61.7,39.07a6.53,6.53,0,1,0,6.63,6.43A6.53,6.53,0,0,0,61.7,39.07Z"/><path class="cls-33" d="M61.7,39.12a6.48,6.48,0,1,0,6.58,6.38A6.49,6.49,0,0,0,61.7,39.12Z"/><path class="cls-34" d="M61.7,39.17a6.44,6.44,0,1,0,6.53,6.34A6.43,6.43,0,0,0,61.7,39.17Z"/><path class="cls-35" d="M61.7,39.21a6.39,6.39,0,1,0,6.48,6.3A6.4,6.4,0,0,0,61.7,39.21Z"/><path class="cls-36" d="M61.7,39.26a6.34,6.34,0,1,0,6.43,6.25A6.33,6.33,0,0,0,61.7,39.26Z"/><path class="cls-37" d="M61.7,39.31a6.29,6.29,0,1,0,6.39,6.2A6.28,6.28,0,0,0,61.7,39.31Z"/><path class="cls-38" d="M61.7,39.36A6.24,6.24,0,1,0,68,45.51,6.25,6.25,0,0,0,61.7,39.36Z"/><path class="cls-39" d="M61.7,39.41A6.19,6.19,0,1,0,68,45.51,6.19,6.19,0,0,0,61.7,39.41Z"/><path class="cls-40" d="M61.7,39.46a6.15,6.15,0,1,0,6.24,6A6.14,6.14,0,0,0,61.7,39.46Z"/><path class="cls-41" d="M61.7,39.5a6.1,6.1,0,1,0,6.19,6A6.1,6.1,0,0,0,61.7,39.5Z"/><path class="cls-42" d="M61.71,39.55a6.05,6.05,0,1,0,6.13,6A6,6,0,0,0,61.71,39.55Z"/><path class="cls-43" d="M61.71,39.6a6,6,0,1,0,6.09,5.91A6,6,0,0,0,61.71,39.6Z"/><path class="cls-44" d="M61.71,39.65a6,6,0,1,0,6,5.86A6,6,0,0,0,61.71,39.65Z"/><path class="cls-45" d="M61.71,39.7a5.9,5.9,0,1,0,6,5.81A5.91,5.91,0,0,0,61.71,39.7Z"/><path class="cls-46" d="M61.71,39.75a5.86,5.86,0,1,0,5.94,5.76A5.84,5.84,0,0,0,61.71,39.75Z"/><path class="cls-47" d="M61.71,39.79a5.81,5.81,0,1,0,5.89,5.72A5.81,5.81,0,0,0,61.71,39.79Z"/><path class="cls-48" d="M61.71,39.84a5.76,5.76,0,1,0,5.84,5.68A5.76,5.76,0,0,0,61.71,39.84Z"/><path class="cls-49" d="M61.71,39.89a5.71,5.71,0,1,0,5.79,5.63A5.71,5.71,0,0,0,61.71,39.89Z"/><path class="cls-50" d="M61.71,39.94a5.66,5.66,0,1,0,5.75,5.58A5.67,5.67,0,0,0,61.71,39.94Z"/><path class="cls-51" d="M61.71,40a5.61,5.61,0,1,0,5.7,5.53A5.61,5.61,0,0,0,61.71,40Z"/><path class="cls-52" d="M61.71,40a5.57,5.57,0,1,0,5.65,5.48A5.56,5.56,0,0,0,61.71,40Z"/><path class="cls-53" d="M61.71,40.09a5.52,5.52,0,1,0,5.6,5.43A5.51,5.51,0,0,0,61.71,40.09Z"/><path class="cls-54" d="M61.71,40.13a5.47,5.47,0,1,0,5.55,5.39A5.46,5.46,0,0,0,61.71,40.13Z"/><path class="cls-55" d="M61.71,40.18a5.42,5.42,0,1,0,5.5,5.34A5.42,5.42,0,0,0,61.71,40.18Z"/><path class="cls-56" d="M61.72,40.23a5.37,5.37,0,1,0,5.45,5.29A5.37,5.37,0,0,0,61.72,40.23Z"/><path class="cls-57" d="M61.72,40.28a5.32,5.32,0,1,0,5.4,5.24A5.33,5.33,0,0,0,61.72,40.28Z"/><path class="cls-58" d="M61.72,40.33a5.28,5.28,0,1,0,5.35,5.19A5.27,5.27,0,0,0,61.72,40.33Z"/><path class="cls-59" d="M61.72,40.38A5.23,5.23,0,1,0,67,45.52,5.22,5.22,0,0,0,61.72,40.38Z"/><path class="cls-60" d="M61.72,40.42A5.18,5.18,0,1,0,67,45.52,5.19,5.19,0,0,0,61.72,40.42Z"/><path class="cls-61" d="M61.72,40.47a5.13,5.13,0,1,0,5.2,5.05A5.12,5.12,0,0,0,61.72,40.47Z"/><path class="cls-62" d="M61.72,40.52a5.08,5.08,0,1,0,5.16,5A5.08,5.08,0,0,0,61.72,40.52Z"/><path class="cls-63" d="M61.72,40.57a5,5,0,1,0,5.11,5A5,5,0,0,0,61.72,40.57Z"/><path class="cls-64" d="M61.72,40.62a5,5,0,1,0,5.06,4.91A5,5,0,0,0,61.72,40.62Z"/><path class="cls-65" d="M61.72,40.67a4.94,4.94,0,1,0,5,4.86A4.93,4.93,0,0,0,61.72,40.67Z"/><path class="cls-66" d="M61.72,40.71a4.89,4.89,0,1,0,5,4.82A4.88,4.88,0,0,0,61.72,40.71Z"/><path class="cls-67" d="M61.72,40.76a4.84,4.84,0,1,0,4.91,4.77A4.84,4.84,0,0,0,61.72,40.76Z"/><path class="cls-68" d="M61.72,40.81a4.79,4.79,0,1,0,4.87,4.72A4.79,4.79,0,0,0,61.72,40.81Z"/><path class="cls-69" d="M61.72,40.86a4.74,4.74,0,1,0,4.82,4.67A4.74,4.74,0,0,0,61.72,40.86Z"/><path class="cls-70" d="M61.73,40.91a4.69,4.69,0,1,0,4.76,4.62A4.69,4.69,0,0,0,61.73,40.91Z"/><path class="cls-71" d="M61.73,41a4.65,4.65,0,1,0,4.71,4.57A4.63,4.63,0,0,0,61.73,41Z"/><path class="cls-72" d="M61.73,41a4.6,4.6,0,1,0,4.66,4.53A4.6,4.6,0,0,0,61.73,41Z"/><path class="cls-73" d="M61.73,41.05a4.55,4.55,0,1,0,4.61,4.48A4.55,4.55,0,0,0,61.73,41.05Z"/><path class="cls-74" d="M61.73,41.1a4.5,4.5,0,1,0,4.57,4.43A4.49,4.49,0,0,0,61.73,41.1Z"/><path class="cls-75" d="M61.73,41.15a4.45,4.45,0,1,0,4.52,4.38A4.46,4.46,0,0,0,61.73,41.15Z"/><path class="cls-76" d="M61.73,41.2a4.4,4.4,0,1,0,4.47,4.34A4.4,4.4,0,0,0,61.73,41.2Z"/><path class="cls-77" d="M61.73,41.25a4.36,4.36,0,1,0,4.42,4.29A4.35,4.35,0,0,0,61.73,41.25Z"/><path class="cls-78" d="M61.73,41.29a4.31,4.31,0,1,0,4.37,4.25A4.31,4.31,0,0,0,61.73,41.29Z"/><path class="cls-79" d="M61.73,41.34a4.26,4.26,0,1,0,4.32,4.2A4.26,4.26,0,0,0,61.73,41.34Z"/><path class="cls-80" d="M61.73,41.39A4.21,4.21,0,1,0,66,45.54,4.21,4.21,0,0,0,61.73,41.39Z"/><path class="cls-81" d="M61.73,41.44A4.16,4.16,0,1,0,66,45.54,4.16,4.16,0,0,0,61.73,41.44Z"/><path class="cls-82" d="M61.73,41.49a4.11,4.11,0,1,0,4.18,4A4.11,4.11,0,0,0,61.73,41.49Z"/><path class="cls-83" d="M61.73,41.54a4.07,4.07,0,1,0,4.13,4A4.06,4.06,0,0,0,61.73,41.54Z"/><path class="cls-84" d="M61.74,41.59a4,4,0,1,0,4.07,3.95A4,4,0,0,0,61.74,41.59Z"/><path class="cls-85" d="M61.74,41.63a4,4,0,1,0,4,3.91A4,4,0,0,0,61.74,41.63Z"/><path class="cls-86" d="M61.74,41.68a3.92,3.92,0,1,0,4,3.86A3.91,3.91,0,0,0,61.74,41.68Z"/><path class="cls-87" d="M61.74,41.73a3.87,3.87,0,1,0,3.93,3.81A3.88,3.88,0,0,0,61.74,41.73Z"/></g><g class="cls-88"><path class="cls-6" d="M41.81,38.15a7.75,7.75,0,1,0,7.86,7.63A7.75,7.75,0,0,0,41.81,38.15Z"/><path class="cls-8" d="M41.81,38.2a7.7,7.7,0,1,0,7.81,7.58A7.69,7.69,0,0,0,41.81,38.2Z"/><path class="cls-9" d="M41.82,38.25a7.65,7.65,0,1,0,7.75,7.53A7.65,7.65,0,0,0,41.82,38.25Z"/><path class="cls-10" d="M41.82,38.3a7.6,7.6,0,1,0,7.71,7.48A7.6,7.6,0,0,0,41.82,38.3Z"/><path class="cls-11" d="M41.82,38.35a7.55,7.55,0,1,0,7.66,7.43A7.55,7.55,0,0,0,41.82,38.35Z"/><path class="cls-12" d="M41.82,38.4a7.5,7.5,0,1,0,7.61,7.39A7.5,7.5,0,0,0,41.82,38.4Z"/><path class="cls-13" d="M41.82,38.45a7.45,7.45,0,1,0,7.56,7.34A7.44,7.44,0,0,0,41.82,38.45Z"/><path class="cls-14" d="M41.82,38.49a7.41,7.41,0,1,0,7.51,7.3A7.41,7.41,0,0,0,41.82,38.49Z"/><path class="cls-15" d="M41.82,38.54a7.36,7.36,0,1,0,7.46,7.25A7.36,7.36,0,0,0,41.82,38.54Z"/><path class="cls-16" d="M41.82,38.59a7.31,7.31,0,1,0,7.42,7.2A7.31,7.31,0,0,0,41.82,38.59Z"/><path class="cls-17" d="M41.82,38.64a7.26,7.26,0,1,0,7.37,7.15A7.26,7.26,0,0,0,41.82,38.64Z"/><path class="cls-18" d="M41.82,38.69a7.21,7.21,0,1,0,7.32,7.1A7.2,7.2,0,0,0,41.82,38.69Z"/><path class="cls-19" d="M41.82,38.74a7.16,7.16,0,1,0,7.27,7A7.15,7.15,0,0,0,41.82,38.74Z"/><path class="cls-20" d="M41.82,38.78a7.12,7.12,0,1,0,7.22,7A7.11,7.11,0,0,0,41.82,38.78Z"/><path class="cls-21" d="M41.82,38.83a7.07,7.07,0,1,0,7.17,7A7.07,7.07,0,0,0,41.82,38.83Z"/><path class="cls-22" d="M41.82,38.88A7,7,0,1,0,49,45.79,7,7,0,0,0,41.82,38.88Z"/><path class="cls-23" d="M41.83,38.93a7,7,0,1,0,7.07,6.86A7,7,0,0,0,41.83,38.93Z"/><path class="cls-24" d="M41.83,39a6.92,6.92,0,1,0,7,6.81A6.91,6.91,0,0,0,41.83,39Z"/><path class="cls-25" d="M41.83,39a6.87,6.87,0,1,0,7,6.76A6.86,6.86,0,0,0,41.83,39Z"/><path class="cls-26" d="M41.83,39.07a6.83,6.83,0,1,0,6.92,6.73A6.82,6.82,0,0,0,41.83,39.07Z"/><path class="cls-27" d="M41.83,39.12A6.78,6.78,0,1,0,48.7,45.8,6.78,6.78,0,0,0,41.83,39.12Z"/><path class="cls-28" d="M41.83,39.17a6.73,6.73,0,1,0,6.82,6.63A6.73,6.73,0,0,0,41.83,39.17Z"/><path class="cls-29" d="M41.83,39.22a6.68,6.68,0,1,0,6.78,6.58A6.68,6.68,0,0,0,41.83,39.22Z"/><path class="cls-30" d="M41.83,39.27a6.63,6.63,0,1,0,6.73,6.53A6.63,6.63,0,0,0,41.83,39.27Z"/><path class="cls-31" d="M41.83,39.32a6.58,6.58,0,1,0,6.68,6.48A6.57,6.57,0,0,0,41.83,39.32Z"/><path class="cls-32" d="M41.83,39.36a6.54,6.54,0,1,0,6.63,6.44A6.53,6.53,0,0,0,41.83,39.36Z"/><path class="cls-33" d="M41.83,39.41a6.49,6.49,0,1,0,6.58,6.39A6.48,6.48,0,0,0,41.83,39.41Z"/><path class="cls-34" d="M41.83,39.46a6.44,6.44,0,1,0,6.53,6.34A6.44,6.44,0,0,0,41.83,39.46Z"/><path class="cls-35" d="M41.83,39.51a6.39,6.39,0,1,0,6.49,6.29A6.39,6.39,0,0,0,41.83,39.51Z"/><path class="cls-36" d="M41.83,39.56a6.34,6.34,0,1,0,6.44,6.24A6.33,6.33,0,0,0,41.83,39.56Z"/><path class="cls-37" d="M41.84,39.61a6.29,6.29,0,1,0,6.38,6.19A6.29,6.29,0,0,0,41.84,39.61Z"/><path class="cls-38" d="M41.84,39.65a6.25,6.25,0,1,0,6.33,6.15A6.25,6.25,0,0,0,41.84,39.65Z"/><path class="cls-39" d="M41.84,39.7a6.2,6.2,0,1,0,6.28,6.1A6.19,6.19,0,0,0,41.84,39.7Z"/><path class="cls-40" d="M41.84,39.75a6.15,6.15,0,1,0,6.23,6.06A6.15,6.15,0,0,0,41.84,39.75Z"/><path class="cls-41" d="M41.84,39.8a6.1,6.1,0,1,0,6.19,6A6.1,6.1,0,0,0,41.84,39.8Z"/><path class="cls-42" d="M41.84,39.85a6,6,0,1,0,6.14,6A6.05,6.05,0,0,0,41.84,39.85Z"/><path class="cls-43" d="M41.84,39.9a6,6,0,1,0,6.09,5.91A6,6,0,0,0,41.84,39.9Z"/><path class="cls-44" d="M41.84,40a6,6,0,1,0,6,5.86A5.94,5.94,0,0,0,41.84,40Z"/><path class="cls-45" d="M41.84,40a5.91,5.91,0,1,0,6,5.82A5.9,5.9,0,0,0,41.84,40Z"/><path class="cls-46" d="M41.84,40a5.86,5.86,0,1,0,5.94,5.77A5.87,5.87,0,0,0,41.84,40Z"/><path class="cls-47" d="M41.84,40.09a5.81,5.81,0,1,0,5.9,5.72A5.82,5.82,0,0,0,41.84,40.09Z"/><path class="cls-48" d="M41.84,40.14a5.76,5.76,0,1,0,5.85,5.67A5.75,5.75,0,0,0,41.84,40.14Z"/><path class="cls-49" d="M41.84,40.19a5.71,5.71,0,1,0,5.8,5.62A5.7,5.7,0,0,0,41.84,40.19Z"/><path class="cls-50" d="M41.84,40.24a5.66,5.66,0,1,0,5.75,5.57A5.65,5.65,0,0,0,41.84,40.24Z"/><path class="cls-51" d="M41.85,40.28a5.62,5.62,0,1,0,5.69,5.53A5.62,5.62,0,0,0,41.85,40.28Z"/><path class="cls-52" d="M41.85,40.33a5.57,5.57,0,1,0,5.64,5.48A5.58,5.58,0,0,0,41.85,40.33Z"/><path class="cls-53" d="M41.85,40.38a5.52,5.52,0,1,0,5.6,5.43A5.53,5.53,0,0,0,41.85,40.38Z"/><path class="cls-54" d="M41.85,40.43a5.47,5.47,0,1,0,5.55,5.39A5.47,5.47,0,0,0,41.85,40.43Z"/><path class="cls-55" d="M41.85,40.48a5.42,5.42,0,1,0,5.5,5.34A5.42,5.42,0,0,0,41.85,40.48Z"/><path class="cls-56" d="M41.85,40.53a5.37,5.37,0,1,0,5.45,5.29A5.36,5.36,0,0,0,41.85,40.53Z"/><path class="cls-57" d="M41.85,40.57a5.33,5.33,0,1,0,5.4,5.25A5.33,5.33,0,0,0,41.85,40.57Z"/><circle class="cls-58" cx="41.93" cy="45.9" r="5.27" transform="translate(-18.58 60.15) rotate(-60.84)"/><circle class="cls-59" cx="41.93" cy="45.9" r="5.23" transform="translate(-18.48 60.58) rotate(-61.25)"/><circle class="cls-60" cx="41.93" cy="45.9" r="5.18" transform="translate(-18.36 61.04) rotate(-61.68)"/><circle class="cls-61" cx="41.93" cy="45.9" r="5.13" transform="translate(-18.24 61.51) rotate(-62.14)"/><circle class="cls-62" cx="41.93" cy="45.9" r="5.08" transform="translate(-18.11 62.01) rotate(-62.61)"/><circle class="cls-63" cx="41.93" cy="45.9" r="5.03" transform="translate(-17.97 62.53) rotate(-63.11)"/><circle class="cls-64" cx="41.93" cy="45.9" r="4.98" transform="translate(-17.82 63.08) rotate(-63.63)"/><circle class="cls-65" cx="41.93" cy="45.9" r="4.94" transform="translate(-17.65 63.65) rotate(-64.18)"/><circle class="cls-66" cx="41.93" cy="45.9" r="4.89" transform="translate(-17.47 64.25) rotate(-64.76)"/><circle class="cls-67" cx="41.93" cy="45.9" r="4.84" transform="translate(-17.27 64.88) rotate(-65.37)"/><path class="cls-68" d="M41.86,41.11a4.79,4.79,0,1,0,4.86,4.72A4.78,4.78,0,0,0,41.86,41.11Z"/><path class="cls-69" d="M41.86,41.15a4.75,4.75,0,1,0,4.81,4.68A4.75,4.75,0,0,0,41.86,41.15Z"/><path class="cls-70" d="M41.86,41.2a4.7,4.7,0,1,0,4.76,4.63A4.69,4.69,0,0,0,41.86,41.2Z"/><path class="cls-71" d="M41.86,41.25a4.65,4.65,0,1,0,4.71,4.58A4.65,4.65,0,0,0,41.86,41.25Z"/><path class="cls-72" d="M41.86,41.3a4.6,4.6,0,1,0,4.67,4.53A4.6,4.6,0,0,0,41.86,41.3Z"/><path class="cls-73" d="M41.86,41.35a4.55,4.55,0,1,0,4.62,4.48A4.55,4.55,0,0,0,41.86,41.35Z"/><path class="cls-74" d="M41.86,41.4a4.5,4.5,0,1,0,4.57,4.43A4.49,4.49,0,0,0,41.86,41.4Z"/><path class="cls-75" d="M41.86,41.45a4.45,4.45,0,1,0,4.52,4.38A4.43,4.43,0,0,0,41.86,41.45Z"/><path class="cls-76" d="M41.86,41.49a4.41,4.41,0,1,0,4.47,4.34A4.4,4.4,0,0,0,41.86,41.49Z"/><path class="cls-77" d="M41.86,41.54a4.36,4.36,0,1,0,4.42,4.29A4.37,4.37,0,0,0,41.86,41.54Z"/><path class="cls-78" d="M41.87,41.59a4.31,4.31,0,1,0,4.37,4.24A4.32,4.32,0,0,0,41.87,41.59Z"/><path class="cls-79" d="M41.87,41.64a4.26,4.26,0,1,0,4.32,4.19A4.26,4.26,0,0,0,41.87,41.64Z"/><path class="cls-80" d="M41.87,41.69a4.21,4.21,0,1,0,4.27,4.14A4.2,4.2,0,0,0,41.87,41.69Z"/><path class="cls-81" d="M41.87,41.74a4.16,4.16,0,1,0,4.22,4.09A4.15,4.15,0,0,0,41.87,41.74Z"/><path class="cls-82" d="M41.87,41.78A4.12,4.12,0,1,0,46,45.84,4.12,4.12,0,0,0,41.87,41.78Z"/><path class="cls-83" d="M41.87,41.83a4.07,4.07,0,1,0,4.12,4A4.07,4.07,0,0,0,41.87,41.83Z"/><path class="cls-84" d="M41.87,41.88a4,4,0,1,0,4.08,4A4,4,0,0,0,41.87,41.88Z"/><path class="cls-85" d="M41.87,41.93a4,4,0,1,0,4,3.91A4,4,0,0,0,41.87,41.93Z"/><path class="cls-86" d="M41.87,42a3.92,3.92,0,1,0,4,3.86A3.92,3.92,0,0,0,41.87,42Z"/><path class="cls-87" d="M41.87,42a3.87,3.87,0,1,0,3.93,3.81A3.86,3.86,0,0,0,41.87,42Z"/></g><path class="cls-89" d="M44.12,49.29s2.15,8.44,8.8,8.22,7.95-8.26,7.95-8.26S54,57.17,44.12,49.29Z"/><path class="cls-90" d="M46.58,50.6a6.62,6.62,0,0,0,6.24,4.32c4.92.11,5.63-3.81,5.49-4.1C56.45,52.25,52.17,54.48,46.58,50.6Z"/><path class="cls-91" d="M46.58,50.6a6.72,6.72,0,0,0,3,3.49,17.44,17.44,0,0,1,2.34-.87,12.06,12.06,0,0,1,5.76-.52,3.25,3.25,0,0,0,.63-1.88C56.45,52.25,52.17,54.48,46.58,50.6Z"/><path class="cls-4" d="M65.07,30.78s-6-1.31-9.15,1.69a62.68,62.68,0,0,1,2,10s.62-5.26,3.26-5.81,5.07,2.45,5.42,1.64a3.1,3.1,0,0,0,.28-1.44Z"/><path class="cls-90" d="M57.94,42.44a6.75,6.75,0,0,0,5.23-.29,4.3,4.3,0,0,0,2.25-3.6C60,32.1,57.94,42.44,57.94,42.44Z"/><path class="cls-92" d="M60.73,36.9a5.33,5.33,0,0,0-1.53,1.93,5,5,0,0,0,.23,2,4.45,4.45,0,0,0,1.25,2,6.41,6.41,0,0,0,2.49-.67l.22-.13a4.56,4.56,0,0,0-.12-2.54C62.77,37.94,61.7,36.88,60.73,36.9Z"/><path class="cls-93" d="M61.06,39.65c-.33,1.41,2.81,1.94,2.81,1.94V40.4S61.39,38.23,61.06,39.65Z"/><path class="cls-90" d="M37.75,39c.31,3.56,4.9,5.6,8.94,2.72L46.5,41C43,34,37.57,36.76,37.75,39Z"/><path class="cls-94" d="M41.45,37.17c-1.08.38-1.5,2.13-.92,3.92a4.8,4.8,0,0,0,1,1.85,6.1,6.1,0,0,0,2.83-.14,4.3,4.3,0,0,0,0-3.06C43.88,38,42.54,36.8,41.45,37.17Z"/><path class="cls-4" d="M37.75,39l-.18,0A.35.35,0,0,0,37.75,39Z"/><path class="cls-4" d="M43.19,30.49a24.16,24.16,0,0,0-5.69-.31l-1.33,8.55,1.4.2c-.14-.09,0-.45,2.35-1.83,3.41-2,6.68,4.22,6.68,4.22A33.41,33.41,0,0,1,48,31.68S45.31,31,43.19,30.49Z"/><path class="cls-95" d="M55.44,30.81l.56,2a7.76,7.76,0,0,1,8.75.26l.34-.47S60,27.62,55.44,30.81Z"/><path class="cls-95" d="M38.17,31.48l.23.53a8.88,8.88,0,0,1,9.12,1.52l.5-1.85C44.26,27.61,38.17,31.48,38.17,31.48Z"/><path class="cls-6" d="M27.2,39.52c-2.67,1.17,4.65,14.25,6.81,9.55l-1.82-8C31.68,41.08,29.86,38.35,27.2,39.52Z"/><path class="cls-96" d="M73.1,39.78a4.54,4.54,0,0,0-1.69-.56,24.82,24.82,0,0,0-5.26-16,21.93,21.93,0,0,0-15.71-7.88C44.22,15,38,17.13,34.13,22.2c-3.24,4.26-3.74,9.87-3.17,15,.13,1.12.3,2.24.51,3.37-.87-.74-2.35-1.92-4.27-1.08-1.46.64.06,4.81,2.09,7.72,6.88-8.51,17.78-14.15,22.08-21.94a14.79,14.79,0,0,0,3.34,4.28c7.19,5.66,16,8.63,18.3,17.25C74.35,44,73.85,40.23,73.1,39.78Z"/><path class="cls-6" d="M53.13,37.63l-2.39,0s-1.84,5.76-1.57,8.44S56,50,56.68,46.05c.21-1.16-1.45-2.61-2.08-3.38C53,40.78,53.13,37.63,53.13,37.63Z"/><path class="cls-97" d="M53.19,38.78l-.91,0a13.29,13.29,0,0,0,.28,6.91l.81,0A9.45,9.45,0,0,0,56.45,45a14.12,14.12,0,0,0-1.85-2.3A7.39,7.39,0,0,1,53.19,38.78Z"/><path class="cls-4" d="M49.15,45.81a5.43,5.43,0,0,0,0,.58c.28,2.68,6.84,3.7,7.52-.22v0C54.19,47.24,51.38,47.51,49.15,45.81Z"/><path class="cls-95" d="M41.45,36.11c-3.67-.45-3.93,2.55-4.53,2.61a1.21,1.21,0,0,1-.9-.24,1.9,1.9,0,0,0,1.66,1.08c1.19,0,1.88-1.86,4.14-1.56,2.75.35,4.87,3.68,4.87,3.68S46,36.67,41.45,36.11Z"/><path class="cls-98" d="M47.12,7.08s-10.75-3.78-24.23,26c-11.11,24.51.38,43.7,6.47,54.92-5.09-10.83-7.9-22.61-3.78-34.5,4.06-12.82,14.08-17.61,21.73-27.64,1.38-2.15,3.06-4,3.19-6.8,2.22,6.34,9.62,11.78,14.63,15.25,17.6,11.36,16.74,27.17,10.38,44.1C88.89,60.16,90.72,44.7,77.31,25,70.74,15.34,51.05,1,47.12,7.08Z"/><path class="cls-99" d="M28.42,86.27c.32.59.64,1.16.94,1.72-.26-.56-.52-1.12-.77-1.69Z"/><path class="cls-100" d="M23.6,31.53a37.51,37.51,0,0,0,8.95,6c.81.41,1.63.79,2.46,1.15,3-3.1,6.3-6,9.39-9.39a29.82,29.82,0,0,1-16.49-6.08C26.51,25.64,25.07,28.38,23.6,31.53Z"/><path class="cls-100" d="M73.37,20.26c-4.16,3.92-10.19,6.54-16.11,7.94a74.46,74.46,0,0,0,7.87,6.1,41.11,41.11,0,0,1,5,3.76c1.2-.59,2.4-1.23,3.59-2a26.43,26.43,0,0,0,6.89-5.86c-1-1.71-2-3.46-3.27-5.24A37.51,37.51,0,0,0,73.37,20.26Z"/><path class="cls-101" d="M54.05,9.61c6.18,2.63,14.81,8.1,20.52,11.92C66.42,12.31,50.6,1.7,47.12,7.08c0,0-9.74-3.42-22.3,21.9a62.16,62.16,0,0,1,7-7.11A86.33,86.33,0,0,0,43.16,10,45.18,45.18,0,0,1,32.33,24.22c-3.52,3.08-9,10.85-12.46,17.25a47.48,47.48,0,0,0-1.24,18.45c.11-5.66.71-11.43,3.5-16.4a41.73,41.73,0,0,1,8.32-10.07c3.18-3,6.68-5.51,9.64-8.7a44.45,44.45,0,0,0,6.53-8.83c.22-.41,2.36-4.8,2.15-4.87,4.52,4,4.57,3.66,6.73,5.69,3.33,3.13,7.23,5.59,10.7,8.57a74,74,0,0,1,9.11,9.12A50,50,0,0,1,81,42.83,46.06,46.06,0,0,1,84,50.11q.6,1.85,1,3.75c.23,1,.89,2.8.66,3.83,1.91-8.82.36-17.65-5.13-27.42C72.33,20.92,54.05,9.61,54.05,9.61Z"/><path class="cls-95" d="M65.64,37.39c-.8-.08-1.28-2.09-4.41-1.63-3.58.53-3.29,6.68-3.29,6.68s1-4,3.75-4.87c1.6-.48,2.81,1.48,4.25,1.42s1-2.16,1-2.16A1.45,1.45,0,0,1,65.64,37.39Z"/><path class="cls-93" d="M42.13,40c-.33,1.41,2.8,1.94,2.8,1.94l0-1.19S42.45,38.6,42.13,40Z"/><path class="cls-102" d="M44.12,49.29s4.12,3.61,9.17,3.48a9.56,9.56,0,0,0,7.58-3.52A22.64,22.64,0,0,1,53,51.05,30.12,30.12,0,0,1,44.12,49.29Z"/><path class="cls-103" d="M52.92,57.51c-5,0-8.8-8.22-8.8-8.22s1.7,10.08,8.8,10.08c6.74,0,7.95-9.86,7.95-9.86S57.87,57.53,52.92,57.51Z"/><path class="cls-4" d="M52,63.64c-9.88.48-17.36-16.4-17.36-16.4a4.5,4.5,0,0,1-2.14,1.36,3.69,3.69,0,0,1-3.16-1.36h0c1.63,2.34,3.6,3.86,4.62,2,.63,1.59,7.43,14.68,15.23,15.57,7.08.82,11.9-2.38,15.62-7.45,3.29-4.49,4.88-6.81,5.84-11.07C68.77,50.72,62.45,63.13,52,63.64Z"/><path class="cls-4" d="M30.39,72.61C27.9,76.4,26.64,85.9,25.29,95.4a50.8,50.8,0,0,0,9.81,4.44c2.11-11,3.54-22,3.66-22.74C38.76,77.1,31.74,70.56,30.39,72.61Z"/></g></g></svg>