<svg xmlns="http://www.w3.org/2000/svg" width="258.181" height="76.706" viewBox="0 0 258.181 76.706"><defs><style>.a{fill:#fff;}.b{fill:#a90006;}.c,.d{fill:#fefefe;}.d,.f{fill-rule:evenodd;}.e{fill:none;}.f{fill:#eda5a8;}.g{fill:#fdfdfd;}.h{fill:#ec8e8e;}.i{fill:#a90007;}.j{fill:#ee9090;}</style></defs><path class="a" d="M2069.155,492.1a11.266,11.266,0,0,1-8.615,4.126,10.536,10.536,0,0,1-5.016-1.173,13.4,13.4,0,0,1-3.964-3.074,14.973,14.973,0,0,1-2.629-4.368,13.589,13.589,0,0,1-.931-5.016,13.977,13.977,0,0,1,.931-5.177,13.394,13.394,0,0,1,2.588-4.328,12.383,12.383,0,0,1,3.923-2.953,10.668,10.668,0,0,1,4.935-1.133,14.148,14.148,0,0,1,3.6.445,10.5,10.5,0,0,1,2.912,1.214,8.725,8.725,0,0,1,2.184,1.82,13.547,13.547,0,0,1,1.578,2.386l-2.063,1.375a8.472,8.472,0,0,0-3.438-3.681,9.861,9.861,0,0,0-4.813-1.173,8.715,8.715,0,0,0-4,.93,10.336,10.336,0,0,0-3.074,2.508,11.46,11.46,0,0,0-1.942,3.6,13.489,13.489,0,0,0-.687,4.207,12.585,12.585,0,0,0,.768,4.288,12.312,12.312,0,0,0,2.144,3.6,10.963,10.963,0,0,0,3.2,2.427,8.815,8.815,0,0,0,4,.89,9.955,9.955,0,0,0,4.409-1.052,12.919,12.919,0,0,0,4-3.438V484.9h-5.946v-2.063h8.171V496.06h-2.224Z" transform="translate(-1965.162 -450.03)"/><path class="a" d="M2779.04,498.512v2.346H2761V474h17.717v2.346H2763.67v9.667h13.105v2.225H2763.67v10.274Z" transform="translate(-2649.322 -454.828)"/><path class="a" d="M3284.8,476.346h-9.586v24.512h-2.629V476.346H3263V474h21.8Z" transform="translate(-3131.017 -454.828)"/><path class="b" d="M3914,499.858V473h7.362v20.426h12.175v6.431Z" transform="translate(-3755.685 -453.868)"/><path class="b" d="M4393.591,496.222a12.551,12.551,0,0,1-5.583-1.173,13.8,13.8,0,0,1-8.008-12.5,13.212,13.212,0,0,1,1.011-5.137,13.6,13.6,0,0,1,7.2-7.281,13.9,13.9,0,0,1,11.083.04,13.757,13.757,0,0,1,4.288,3.115,13.909,13.909,0,0,1,2.71,4.368,13.64,13.64,0,0,1,.97,5.016,12.872,12.872,0,0,1-1.011,5.1,14.064,14.064,0,0,1-2.831,4.328,14.281,14.281,0,0,1-4.329,2.993A13.131,13.131,0,0,1,4393.591,496.222Zm-6.108-13.591a8.3,8.3,0,0,0,.4,2.629,6.446,6.446,0,0,0,1.133,2.225,5.177,5.177,0,0,0,1.9,1.578,5.754,5.754,0,0,0,2.75.607,5.87,5.87,0,0,0,2.75-.607,5.7,5.7,0,0,0,1.9-1.618,7.549,7.549,0,0,0,1.092-2.306,9.525,9.525,0,0,0,0-5.218,5.848,5.848,0,0,0-1.173-2.225,6.009,6.009,0,0,0-1.9-1.578,6.355,6.355,0,0,0-2.71-.566,5.757,5.757,0,0,0-2.75.607,5.589,5.589,0,0,0-1.9,1.578,6.819,6.819,0,0,0-1.133,2.306A9.1,9.1,0,0,0,4387.483,482.631Z" transform="translate(-4202.836 -450.03)"/><path class="b" d="M5073.55,496.222a12.489,12.489,0,0,1-5.541-1.173,14.309,14.309,0,0,1-4.288-3.074A13.933,13.933,0,0,1,5060,482.55a13.222,13.222,0,0,1,1.012-5.137,13.485,13.485,0,0,1,2.872-4.328,14.147,14.147,0,0,1,4.328-2.953,13.3,13.3,0,0,1,15.33,3.155,13.345,13.345,0,0,1,2.751,4.368,13.4,13.4,0,0,1-.042,10.112,14.836,14.836,0,0,1-2.831,4.328,13.983,13.983,0,0,1-4.369,2.993A12.877,12.877,0,0,1,5073.55,496.222Zm-6.067-13.591a9.576,9.576,0,0,0,.364,2.629,7.246,7.246,0,0,0,1.133,2.225,5.53,5.53,0,0,0,1.9,1.578,5.873,5.873,0,0,0,2.75.607,6.158,6.158,0,0,0,2.791-.607,5.71,5.71,0,0,0,1.9-1.618,7.582,7.582,0,0,0,1.092-2.306,9.309,9.309,0,0,0,.364-2.589,8.126,8.126,0,0,0-.4-2.629,5.8,5.8,0,0,0-1.132-2.225,5.586,5.586,0,0,0-4.652-2.144,5.7,5.7,0,0,0-2.71.607,6.192,6.192,0,0,0-1.942,1.578,7.593,7.593,0,0,0-1.092,2.306A9.083,9.083,0,0,0,5067.483,482.631Z" transform="translate(-4855.332 -450.03)"/><path class="b" d="M5776,499.858V473h7.362v10.193l8.17-10.193h8.332l-9.748,12.013,10.435,14.845h-8.493l-6.633-9.869-2.063,2.1v7.766Z" transform="translate(-5542.371 -453.868)"/><path class="a" d="M2213,1364.946v-1.052a2.843,2.843,0,0,0,1.739.607c.85,0,1.294-.283,1.294-.849a.6.6,0,0,0-.121-.4,1.083,1.083,0,0,0-.283-.324,4.422,4.422,0,0,0-.445-.243,4.526,4.526,0,0,1-.526-.2,6.467,6.467,0,0,1-.728-.324,1.531,1.531,0,0,1-.486-.364,1.808,1.808,0,0,1-.323-.445,3.117,3.117,0,0,1-.081-.607,1.221,1.221,0,0,1,.2-.769,1.517,1.517,0,0,1,.485-.526,2.691,2.691,0,0,1,.769-.364,3.025,3.025,0,0,1,.849-.081,4.005,4.005,0,0,1,1.416.243v.971a2.821,2.821,0,0,0-1.537-.4,1.667,1.667,0,0,0-.486.041,4.233,4.233,0,0,0-.4.162c-.081.081-.162.2-.243.283a.963.963,0,0,0-.081.364.807.807,0,0,0,.081.364.948.948,0,0,0,.283.283,2.864,2.864,0,0,0,.364.243c.162.081.365.121.566.2.243.121.486.2.728.324a5.821,5.821,0,0,1,.526.364,1.283,1.283,0,0,1,.324.485,1.353,1.353,0,0,1,.121.607,1.7,1.7,0,0,1-.162.809,2.164,2.164,0,0,1-.526.526,2.578,2.578,0,0,1-.769.324,3.455,3.455,0,0,1-.93.121A3.525,3.525,0,0,1,2213,1364.946Z" transform="translate(-2123.488 -1304.031)"/><path class="a" d="M2404.773,1365.148h-.971v-.93h-.041a1.979,1.979,0,0,1-1.86,1.092,1.9,1.9,0,0,1-1.376-.485,1.567,1.567,0,0,1-.526-1.254c0-1.132.647-1.82,1.982-1.982l1.82-.243c0-1.052-.4-1.537-1.254-1.537a2.9,2.9,0,0,0-1.941.728v-1.011a3.681,3.681,0,0,1,2.022-.526c1.416,0,2.144.728,2.144,2.224Zm-.971-3.034-1.456.2a2.128,2.128,0,0,0-1.011.324.945.945,0,0,0-.364.849,1.014,1.014,0,0,0,.323.728,1.335,1.335,0,0,0,.85.283,1.4,1.4,0,0,0,1.173-.526,1.74,1.74,0,0,0,.485-1.254Z" transform="translate(-2302.924 -1304.031)"/><path class="a" d="M2625.971,1298.939H2625V1290h.971Z" transform="translate(-2518.823 -1237.822)"/><path class="a" d="M2751.912,1365.31a2.863,2.863,0,0,1-2.143-.849,3.208,3.208,0,0,1-.769-2.265,3.3,3.3,0,0,1,.809-2.346,3.02,3.02,0,0,1,2.265-.849,2.685,2.685,0,0,1,2.1.809,3.439,3.439,0,0,1,.769,2.306,3.264,3.264,0,0,1-.809,2.305A2.867,2.867,0,0,1,2751.912,1365.31Zm.082-5.5a1.864,1.864,0,0,0-1.457.607,2.681,2.681,0,0,0-.566,1.78,2.421,2.421,0,0,0,.566,1.658,1.77,1.77,0,0,0,1.457.647,1.807,1.807,0,0,0,1.456-.607,2.781,2.781,0,0,0,.485-1.739,2.7,2.7,0,0,0-.485-1.739A1.807,1.807,0,0,0,2751.993,1359.809Z" transform="translate(-2637.807 -1304.031)"/><path class="a" d="M3001.016,1365.148h-.97v-3.438c0-1.294-.486-1.9-1.416-1.9a1.538,1.538,0,0,0-1.214.526,2.156,2.156,0,0,0-.445,1.375v3.438H2996v-6.027h.971v1.011h0a2.164,2.164,0,0,1,1.982-1.132,1.924,1.924,0,0,1,1.537.607,3.084,3.084,0,0,1,.526,1.861Z" transform="translate(-2874.817 -1304.031)"/><path class="a" d="M3299,1364.946v-1.052a2.843,2.843,0,0,0,1.74.607c.849,0,1.294-.283,1.294-.849a.6.6,0,0,0-.121-.4,1.086,1.086,0,0,0-.283-.324,4.422,4.422,0,0,0-.445-.243,4.545,4.545,0,0,1-.526-.2,6.527,6.527,0,0,1-.728-.324,1.528,1.528,0,0,1-.485-.364,1.147,1.147,0,0,1-.324-.445,3.117,3.117,0,0,1-.081-.607,1.541,1.541,0,0,1,.162-.769,2.161,2.161,0,0,1,.526-.526,2.686,2.686,0,0,1,.768-.364,2.891,2.891,0,0,1,.849-.081,3.627,3.627,0,0,1,1.375.243v.971a2.593,2.593,0,0,0-1.5-.4,2.134,2.134,0,0,0-.526.041c-.121.041-.243.121-.364.162-.081.081-.162.2-.242.283a.963.963,0,0,0-.081.364.807.807,0,0,0,.081.364,1.785,1.785,0,0,0,.242.283,3.535,3.535,0,0,0,.4.243c.162.081.364.121.566.2.243.121.485.2.688.324a3.428,3.428,0,0,1,.566.364,1.287,1.287,0,0,1,.323.485,1.656,1.656,0,0,1-.081,1.416,1.312,1.312,0,0,1-.525.526,2,2,0,0,1-.728.324,3.458,3.458,0,0,1-.931.121A3.524,3.524,0,0,1,3299,1364.946Z" transform="translate(-3165.561 -1304.031)"/><path class="a" d="M3492.258,1362.4h-4.287a2.292,2.292,0,0,0,.566,1.537,1.826,1.826,0,0,0,1.416.566,3.136,3.136,0,0,0,1.9-.688v.93a3.787,3.787,0,0,1-2.1.566,2.484,2.484,0,0,1-2.022-.849,3.285,3.285,0,0,1-.728-2.305,3.381,3.381,0,0,1,.768-2.306,2.72,2.72,0,0,1,2.022-.849,2.347,2.347,0,0,1,1.82.728,3.233,3.233,0,0,1,.647,2.144Zm-1.011-.849a1.91,1.91,0,0,0-.4-1.294,1.253,1.253,0,0,0-1.092-.445,1.619,1.619,0,0,0-1.173.486,2.4,2.4,0,0,0-.566,1.254Z" transform="translate(-3345.957 -1304.031)"/><path class="a" d="M3718.155,1360.092a1.2,1.2,0,0,0-.728-.2,1.218,1.218,0,0,0-1.052.607,2.608,2.608,0,0,0-.4,1.578v3.074H3715v-6.027h.971v1.254h0a2.308,2.308,0,0,1,.647-1.011,1.449,1.449,0,0,1,.97-.364,2.11,2.11,0,0,1,.567.081Z" transform="translate(-3564.735 -1304.031)"/><path class="a" d="M3875.663,1362l-2.427,6.027h-.93L3870,1362h1.092l1.5,4.409a3.6,3.6,0,0,1,.243.809h0a4.8,4.8,0,0,1,.2-.809l1.618-4.409Z" transform="translate(-3713.465 -1306.909)"/><path class="a" d="M4094.647,1294.254a.554.554,0,0,1-.445-.162.65.65,0,0,1-.2-.445.67.67,0,0,1,.2-.485.739.739,0,0,1,.445-.162.849.849,0,0,1,.445.162.645.645,0,0,1,.162.485.559.559,0,0,1-.606.607Zm.445,7.564h-.97v-6.027h.97Z" transform="translate(-3928.405 -1240.7)"/><path class="a" d="M4225.53,1364.865a3.069,3.069,0,0,1-1.659.445,2.685,2.685,0,0,1-2.063-.849,3.1,3.1,0,0,1-.809-2.184,3.38,3.38,0,0,1,.849-2.386,2.988,2.988,0,0,1,2.306-.89,3.166,3.166,0,0,1,1.416.283v.971a2.786,2.786,0,0,0-1.457-.445,1.989,1.989,0,0,0-1.537.647,2.641,2.641,0,0,0-.566,1.739,2.338,2.338,0,0,0,.566,1.7,1.891,1.891,0,0,0,1.5.607,2.47,2.47,0,0,0,1.457-.526Z" transform="translate(-4050.268 -1304.031)"/><path class="a" d="M4426.258,1362.4h-4.248a2.274,2.274,0,0,0,.526,1.537,1.981,1.981,0,0,0,1.456.566,3.025,3.025,0,0,0,1.86-.688v.93a3.692,3.692,0,0,1-2.1.566,2.538,2.538,0,0,1-2.022-.849,3.28,3.28,0,0,1-.729-2.305,3.407,3.407,0,0,1,.81-2.306,2.569,2.569,0,0,1,1.981-.849,2.346,2.346,0,0,1,1.82.728,3.231,3.231,0,0,1,.647,2.144Zm-.971-.849a2.139,2.139,0,0,0-.4-1.294,1.382,1.382,0,0,0-1.131-.445,1.53,1.53,0,0,0-1.133.486,2.164,2.164,0,0,0-.607,1.254Z" transform="translate(-4242.178 -1304.031)"/><path class="a" d="M4640,1364.946v-1.052a2.845,2.845,0,0,0,1.739.607c.85,0,1.294-.283,1.294-.849a.6.6,0,0,0-.121-.4,1.093,1.093,0,0,0-.283-.324,4.522,4.522,0,0,0-.445-.243,2.86,2.86,0,0,1-.526-.2,6.566,6.566,0,0,1-.727-.324,1.526,1.526,0,0,1-.486-.364,1.139,1.139,0,0,1-.323-.445,1.621,1.621,0,0,1-.122-.607,1.553,1.553,0,0,1,.2-.769,1.635,1.635,0,0,1,.526-.526,2.462,2.462,0,0,1,.728-.364,3.168,3.168,0,0,1,.889-.081,3.628,3.628,0,0,1,1.375.243v.971a2.726,2.726,0,0,0-1.537-.4,1.963,1.963,0,0,0-.485.041c-.122.041-.243.121-.364.162a.76.76,0,0,0-.243.283.963.963,0,0,0-.081.364.807.807,0,0,0,.081.364c.041.121.162.2.243.283a3.59,3.59,0,0,0,.4.243c.162.081.324.121.526.2a6.428,6.428,0,0,1,.729.324c.2.121.4.242.566.364a2.094,2.094,0,0,1,.324.485,1.363,1.363,0,0,1,.121.607,1.343,1.343,0,0,1-.2.809,1.315,1.315,0,0,1-.525.526,1.921,1.921,0,0,1-.77.324,3.152,3.152,0,0,1-.889.121A3.409,3.409,0,0,1,4640,1364.946Z" transform="translate(-4452.32 -1304.031)"/><path class="a" d="M4913.732,1365.148h-.931v-.93h-.04a2.2,2.2,0,0,1-3.277.607,1.677,1.677,0,0,1-.485-1.254c0-1.132.647-1.82,1.982-1.982l1.82-.243c0-1.052-.444-1.537-1.253-1.537a3.081,3.081,0,0,0-1.982.728v-1.011a3.921,3.921,0,0,1,2.063-.526c1.416,0,2.1.728,2.1,2.224Zm-.931-3.034-1.456.2a2.152,2.152,0,0,0-1.051.324,1.038,1.038,0,0,0-.324.849,1.014,1.014,0,0,0,.324.728,1.334,1.334,0,0,0,.85.283,1.512,1.512,0,0,0,1.172-.526,1.737,1.737,0,0,0,.485-1.254Z" transform="translate(-4710.439 -1304.031)"/><path class="a" d="M5118.559,1325.766a2.024,2.024,0,0,1-.931.162c-1.051,0-1.577-.566-1.577-1.739v-3.6H5115v-.809h1.051v-1.456l.971-.324v1.78h1.537v.809h-1.537v3.438a1.448,1.448,0,0,0,.2.849.833.833,0,0,0,.688.243.952.952,0,0,0,.647-.2Z" transform="translate(-4908.107 -1264.689)"/><path class="a" d="M5383.016,1298.939h-.971v-3.479c0-1.254-.444-1.861-1.416-1.861a1.513,1.513,0,0,0-1.173.526,2.074,2.074,0,0,0-.486,1.416v3.4H5378V1290h.971v3.924h.041a2.122,2.122,0,0,1,1.982-1.133c1.334,0,2.022.809,2.022,2.427Z" transform="translate(-5160.47 -1237.822)"/><path class="a" d="M5601.913,1365.31a2.713,2.713,0,0,1-2.1-.849,3.054,3.054,0,0,1-.81-2.265,3.3,3.3,0,0,1,.81-2.346,3.082,3.082,0,0,1,2.265-.849,2.632,2.632,0,0,1,2.1.809,3.765,3.765,0,0,1-.04,4.611A2.868,2.868,0,0,1,5601.913,1365.31Zm.081-5.5a1.865,1.865,0,0,0-1.457.607,2.68,2.68,0,0,0-.566,1.78,2.42,2.42,0,0,0,.566,1.658,1.771,1.771,0,0,0,1.457.647,1.751,1.751,0,0,0,1.455-.607,2.781,2.781,0,0,0,.485-1.739,2.7,2.7,0,0,0-.485-1.739A1.751,1.751,0,0,0,5601.994,1359.809Z" transform="translate(-5372.531 -1304.031)"/><path class="a" d="M5854.575,1365.148h-.97v-3.438a2.567,2.567,0,0,0-.325-1.456,1.06,1.06,0,0,0-1.011-.445,1.18,1.18,0,0,0-1.052.566,1.91,1.91,0,0,0-.445,1.335v3.438h-.97v-3.559c0-1.214-.445-1.78-1.376-1.78a1.23,1.23,0,0,0-1.051.526,2.138,2.138,0,0,0-.405,1.375v3.438H5846v-6.027h.971v.971h0a2.081,2.081,0,0,1,1.9-1.092,1.558,1.558,0,0,1,1.052.323,1.769,1.769,0,0,1,.647.89,2.181,2.181,0,0,1,2.022-1.214c1.294,0,1.981.809,1.981,2.427Z" transform="translate(-5609.539 -1304.031)"/><path class="a" d="M6160.258,1362.4h-4.288a2.3,2.3,0,0,0,.566,1.537,1.825,1.825,0,0,0,1.415.566,3.138,3.138,0,0,0,1.9-.688v.93a3.834,3.834,0,0,1-2.144.566,2.453,2.453,0,0,1-1.981-.849,3.282,3.282,0,0,1-.728-2.305,3.383,3.383,0,0,1,.768-2.306,2.7,2.7,0,0,1,1.982-.849,2.379,2.379,0,0,1,1.861.728,3.231,3.231,0,0,1,.647,2.144Zm-1.011-.849a1.912,1.912,0,0,0-.4-1.294,1.254,1.254,0,0,0-1.092-.445,1.619,1.619,0,0,0-1.173.486,2.125,2.125,0,0,0-.566,1.254Z" transform="translate(-5906.041 -1304.031)"/><path class="a" d="M1711.629,0V76.706H1709V0Z" transform="translate(-1639.874)"/><rect class="b" width="59.868" height="56.126" rx="5" transform="translate(0 9.983)"/><rect class="c" width="2.637" height="2.198" transform="translate(8.98 27.262)"/><rect class="c" width="1.148" height="2.801" transform="translate(9.748 24.754)"/><path class="d" d="M226,587.364a36.427,36.427,0,0,0,5.865-.364v.688a19.055,19.055,0,0,1-4.045.364l-.04.324H226Z" transform="translate(-216.859 -563.257)"/><line class="e" x2="10.29" transform="translate(5.613 47.4)"/><path class="f" d="M1221.982,574h.2a.363.363,0,0,1,.364.364v7.928a.33.33,0,0,1-.364.324h-1.86a.3.3,0,0,1-.324-.324v-5.177C1220,576.386,1221.294,574,1221.982,574Z" transform="translate(-1170.653 -550.783)"/><path class="d" d="M1185,760.737h.324v-1.861a.631.631,0,0,1,.647-.607v-5.784a.486.486,0,0,1,.445-.485h2.508a.492.492,0,0,1,.485.485v5.784a.622.622,0,0,1,.607.607v1.861h.364v9.505H1185Z" transform="translate(-1137.069 -721.583)"/><path class="d" d="M163.564,799.737a39.217,39.217,0,0,1,.728-7.645L162.431,791v1.011h-4.854v-.971l-1.577.93a40.472,40.472,0,0,1,.728,7.766,41.749,41.749,0,0,1-.688,7.564h8.211A41.749,41.749,0,0,1,163.564,799.737Z" transform="translate(-149.69 -759.005)"/><path class="d" d="M195,706.611h4.854V702h-1.092v1.052h-2.67V702H195v4.611Z" transform="translate(-187.113 -673.605)"/><path class="d" d="M222,703.052h2.67V702H222Z" transform="translate(-213.02 -673.605)"/><path class="d" d="M222,675.133h2.67V674H223.9v.283h-1.133V674H222Z" transform="translate(-213.02 -646.738)"/><path class="d" d="M241,674.283h1.133V674H241Z" transform="translate(-231.252 -646.738)"/><path class="d" d="M241,623.144h1.133V621H241Z" transform="translate(-231.252 -595.882)"/><path class="d" d="M241,612.364h1.133V612H241Z" transform="translate(-231.252 -587.246)"/><path class="d" d="M226.607,588.011h1.133v.364h.04l.04-.324a19.055,19.055,0,0,0,4.045-.364V587a36.427,36.427,0,0,1-5.865.364v1.011h.607Z" transform="translate(-216.859 -563.257)"/><ellipse class="e" cx="2.339" cy="3.274" rx="2.339" ry="3.274" transform="translate(15.902 41.788)"/><circle class="e" cx="1.871" cy="1.871" r="1.871" transform="translate(15.902 43.658)"/><ellipse class="e" cx="2.806" cy="3.274" rx="2.806" ry="3.274" transform="translate(22.451 42.723)"/><circle class="e" cx="1.871" cy="1.871" r="1.871" transform="translate(22.451 43.658)"/><circle class="e" cx="0.935" cy="0.935" r="0.935" transform="translate(20.58 34.304)"/><path class="d" d="M384.872,1035a2.99,2.99,0,0,0-1.335.364c-.2.2-.4.364-.607.566a3.509,3.509,0,0,0-.93,2.387,2.9,2.9,0,1,0,5.744.121v-.121A3.132,3.132,0,0,0,384.872,1035Zm-1.78,3.317a1.922,1.922,0,0,1,1.78-2.063,2.109,2.109,0,1,1-1.78,2.063Z" transform="translate(-366.549 -993.136)"/><path class="d" d="M543.791,1048a2.989,2.989,0,0,0-2.791,2.912v.647a2.989,2.989,0,0,0,2.791,2.912,3.271,3.271,0,0,0,0-6.472Zm-1.739,3.115a1.777,1.777,0,1,1,1.739,2.144A1.974,1.974,0,0,1,542.052,1051.115Z" transform="translate(-519.118 -1005.61)"/><path class="d" d="M506,848.254a1.043,1.043,0,0,0,1.011.93h.04a1.451,1.451,0,0,0,.445-.081,1.142,1.142,0,0,0,.607-1.011A1.107,1.107,0,0,0,507.052,847a1.022,1.022,0,0,0-.93.607Zm.607-.081a.441.441,0,0,0,.445.4h0a.364.364,0,0,0,.2-.041.464.464,0,0,0,.243-.445.45.45,0,0,0-.849-.2Z" transform="translate(-485.533 -812.74)"/><path class="d" d="M541,887h.728a10.5,10.5,0,0,0,3.681,7.119l-1.577-.2A2.906,2.906,0,0,0,541,896.424Z" transform="translate(-519.118 -851.122)"/><path class="d" d="M417.6,893l1.173.89-.364,8.737s-.121-2.67-1.658-3.034A9.179,9.179,0,0,0,414,899.35h0A10.5,10.5,0,0,0,417.6,893Z" transform="translate(-397.254 -856.88)"/><path class="d" d="M495.526,593.162,495,593l.445,11.568v-.243a.863.863,0,0,1,.121-.485.982.982,0,0,1,.849-.566.04.04,0,0,1,.04.04l.04-.04a1.112,1.112,0,0,1,.89.485l-.93-5.177Z" transform="translate(-474.978 -569.014)"/><path class="d" d="M535.456,587l-.566.081L534,592.1,535.133,598Z" transform="translate(-512.401 -563.257)"/><rect class="g" width="17.773" height="17.773" transform="translate(28.999 30.562)"/><circle class="b" cx="3.742" cy="3.742" r="3.742" transform="translate(29.934 31.498)"/><circle class="h" cx="3.742" cy="3.742" r="3.742" transform="translate(38.353 31.498)"/><circle class="i" cx="3.742" cy="3.742" r="3.742" transform="translate(38.353 39.917)"/><circle class="j" cx="3.742" cy="3.742" r="3.742" transform="translate(29.934 39.917)"/></svg>