<svg id="Layer_1" data-name="Layer 1" xmlns="http://www.w3.org/2000/svg" viewBox="0 0 30 25"><defs><style>.cls-1{fill:none;}.cls-2{fill:#5b5b5b;}</style></defs><title>offers</title><rect class="cls-1" width="30" height="25"/><g id="Group_25" data-name="Group 25"><g id="Group_12" data-name="Group 12"><path id="Path_10" data-name="Path 10" class="cls-2" d="M5.8,23l1.79-5.41a10.48,10.48,0,1,1,7.91,3.63,10.37,10.37,0,0,1-4.61-1.08ZM15.5,1.31A9.32,9.32,0,0,0,8.8,17l.27.29-1,2.95,2.79-1.56.31.16a9.1,9.1,0,0,0,4.31,1.09,9.3,9.3,0,0,0,0-18.6Z"/></g><g id="Group_13" data-name="Group 13"><path id="Path_11" data-name="Path 11" class="cls-2" d="M12.36,15.5a.41.41,0,0,1-.41-.41.43.43,0,0,1,.09-.26l6-7.39a.41.41,0,1,1,.65.5l0,0-6,7.39A.41.41,0,0,1,12.36,15.5Z"/></g><g id="Group_14" data-name="Group 14"><path id="Path_12" data-name="Path 12" class="cls-2" d="M13,11.39a2.33,2.33,0,1,1,2.32-2.33h0A2.32,2.32,0,0,1,13,11.39Zm0-3.83a1.51,1.51,0,1,0,1.5,1.5h0A1.5,1.5,0,0,0,13,7.56Z"/></g><g id="Group_15" data-name="Group 15"><path id="Path_13" data-name="Path 13" class="cls-2" d="M17.93,16.18a2.33,2.33,0,1,1,2.32-2.32h0A2.32,2.32,0,0,1,17.93,16.18Zm0-3.83a1.51,1.51,0,1,0,1.5,1.51h0a1.51,1.51,0,0,0-1.5-1.51Z"/></g></g></svg>