<?xml version="1.0" encoding="utf-8"?>
<!-- Generator: Adobe Illustrator 23.0.0, SVG Export Plug-In . SVG Version: 6.00 Build 0)  -->
<svg version="1.1" id="Layer_1" xmlns="http://www.w3.org/2000/svg" xmlns:xlink="http://www.w3.org/1999/xlink" x="0px" y="0px"
	 viewBox="0 0 21 22" style="enable-background:new 0 0 21 22;" xml:space="preserve">
<style type="text/css">
	.st0{fill:none;}
	.st1{fill:none;stroke:#5B5B5B;}
	.st2{fill:#FFFFFF;}
</style>
<title>order</title>
<rect class="st0" width="21" height="22"/>
<g id="Rectangle_1480">
	<path class="st0" d="M2,0h14c1.1,0,2,0.9,2,2v18c0,1.1-0.9,2-2,2H2c-1.1,0-2-0.9-2-2V2C0,0.9,0.9,0,2,0z"/>
	<path class="st1" d="M2,0.5h14c0.8,0,1.5,0.7,1.5,1.5v18c0,0.8-0.7,1.5-1.5,1.5H2c-0.8,0-1.5-0.7-1.5-1.5V2C0.5,1.2,1.2,0.5,2,0.5z
		"/>
</g>
<g id="Rectangle_1481">
	<rect x="4" y="5" class="st2" width="2" height="2"/>
	<rect x="4.5" y="5.5" class="st1" width="1" height="1"/>
</g>
<g id="Rectangle_1482">
	<rect x="4" y="9" class="st2" width="2" height="2"/>
	<rect x="4.5" y="9.5" class="st1" width="1" height="1"/>
</g>
<g id="Rectangle_1483">
	<rect x="4" y="13" class="st2" width="2" height="2"/>
	<rect x="4.5" y="13.5" class="st1" width="1" height="1"/>
</g>
<line id="Line_116" class="st1" x1="7.5" y1="6.5" x2="13.5" y2="6.5"/>
<line id="Line_117" class="st1" x1="7.5" y1="10.5" x2="12.5" y2="10.5"/>
<line id="Line_118" class="st1" x1="7.5" y1="14.5" x2="11.5" y2="14.5"/>
<circle class="st1" cx="17.3" cy="14.8" r="3.3"/>
<path id="Path_645" class="st1" d="M15.5,15l1.2,1.3l2.4-2.5"/>
</svg>
